<?xml version="1.0" encoding="UTF-8"?>
<svg width="467px" height="116px" viewBox="0 0 467 116" version="1.1" xmlns="http://www.w3.org/2000/svg" xmlns:xlink="http://www.w3.org/1999/xlink">
    <title>libro-text</title>
    <defs>
        <linearGradient x1="50%" y1="0%" x2="50%" y2="100%" id="linearGradient-1">
            <stop stop-color="#12D8C6" offset="0%"></stop>
            <stop stop-color="#000000" stop-opacity="0.5" offset="100%"></stop>
        </linearGradient>
        <polygon id="path-2" points="0 0.366210938 13.1835938 0.366210938 13.1835938 107.958984 0 107.958984"></polygon>
        <linearGradient x1="50%" y1="0%" x2="50%" y2="100%" id="linearGradient-3">
            <stop stop-color="#12D8C6" offset="0%"></stop>
            <stop stop-color="#000000" stop-opacity="0.5" offset="100%"></stop>
        </linearGradient>
        <path d="M32.9589844,29.8828125 L46.3623047,29.8828125 L46.3623047,107.958984 L32.9589844,107.958984 L32.9589844,29.8828125 Z M32.9589844,0.366210938 L46.3623047,0.366210938 L46.3623047,15.3076172 L32.9589844,15.3076172 L32.9589844,0.366210938 Z" id="path-4"></path>
        <linearGradient x1="50%" y1="0%" x2="50%" y2="100%" id="linearGradient-5">
            <stop stop-color="#12D8C6" offset="0%"></stop>
            <stop stop-color="#000000" stop-opacity="0.5" offset="100%"></stop>
        </linearGradient>
        <path d="M65.2587891,0 L78.0761719,0 L78.0761719,39.0380859 C80.9570312,35.2783203 84.3994141,32.409668 88.4033203,30.4321289 C92.4072266,28.4545898 96.7529297,27.4658203 101.44043,27.4658203 C111.206055,27.4658203 119.128418,30.8227539 125.20752,37.5366211 C131.286621,44.2504883 134.326172,54.1503906 134.326172,67.2363281 C134.326172,79.6386719 131.323242,89.9414062 125.317383,98.1445312 C119.311523,106.347656 110.986328,110.449219 100.341797,110.449219 C94.3847656,110.449219 89.3554688,109.008789 85.2539062,106.12793 C82.8125,104.418945 80.2001953,101.68457 77.4169922,97.9248047 L77.4169922,107.958984 L65.2587891,107.958984 L65.2587891,0 Z M99.5361328,98.8037109 C106.665039,98.8037109 111.999512,95.9716797 115.539551,90.3076172 C119.07959,84.6435547 120.849609,77.1728516 120.849609,67.8955078 C120.849609,59.6435547 119.07959,52.8076172 115.539551,47.3876953 C111.999512,41.9677734 106.787109,39.2578125 99.9023438,39.2578125 C93.8964844,39.2578125 88.6352539,41.4794922 84.1186523,45.9228516 C79.6020508,50.3662109 77.34375,57.6904297 77.34375,67.8955078 C77.34375,75.2685547 78.2714844,81.25 80.1269531,85.8398438 C83.59375,94.4824219 90.0634766,98.8037109 99.5361328,98.8037109 Z" id="path-6"></path>
        <linearGradient x1="50%" y1="0%" x2="50%" y2="100%" id="linearGradient-7">
            <stop stop-color="#12D8C6" offset="0%"></stop>
            <stop stop-color="#000000" stop-opacity="0.5" offset="100%"></stop>
        </linearGradient>
        <path d="M150.073242,29.5166016 L162.597656,29.5166016 L162.597656,43.0664062 C163.623047,40.4296875 166.137695,37.2192383 170.141602,33.4350586 C174.145508,29.6508789 178.759766,27.7587891 183.984375,27.7587891 C184.228516,27.7587891 184.643555,27.7832031 185.229492,27.8320312 C185.81543,27.8808594 186.816406,27.9785156 188.232422,28.125 L188.232422,42.0410156 C187.451172,41.8945312 186.730957,41.796875 186.071777,41.7480469 C185.412598,41.6992188 184.692383,41.6748047 183.911133,41.6748047 C177.270508,41.6748047 172.167969,43.8110352 168.603516,48.0834961 C165.039062,52.355957 163.256836,57.2753906 163.256836,62.8417969 L163.256836,107.958984 L150.073242,107.958984 L150.073242,29.5166016 Z" id="path-8"></path>
        <linearGradient x1="50%" y1="0%" x2="50%" y2="100%" id="linearGradient-9">
            <stop stop-color="#12D8C6" offset="0%"></stop>
            <stop stop-color="#000000" stop-opacity="0.5" offset="100%"></stop>
        </linearGradient>
        <path d="M230.786133,99.4628906 C239.526367,99.4628906 245.52002,96.1547852 248.76709,89.5385742 C252.01416,82.9223633 253.637695,75.5615234 253.637695,67.4560547 C253.637695,60.1318359 252.46582,54.1748047 250.12207,49.5849609 C246.411133,42.3583984 240.014648,38.7451172 230.932617,38.7451172 C222.875977,38.7451172 217.016602,41.8212891 213.354492,47.9736328 C209.692383,54.1259766 207.861328,61.5478516 207.861328,70.2392578 C207.861328,78.5888672 209.692383,85.546875 213.354492,91.1132812 C217.016602,96.6796875 222.827148,99.4628906 230.786133,99.4628906 Z M231.298828,27.2460938 C241.40625,27.2460938 249.951172,30.6152344 256.933594,37.3535156 C263.916016,44.0917969 267.407227,54.0039062 267.407227,67.0898438 C267.407227,79.7363281 264.331055,90.1855469 258.178711,98.4375 C252.026367,106.689453 242.480469,110.81543 229.541016,110.81543 C218.75,110.81543 210.180664,107.165527 203.833008,99.8657227 C197.485352,92.565918 194.311523,82.7636719 194.311523,70.4589844 C194.311523,57.2753906 197.65625,46.7773438 204.345703,38.9648438 C211.035156,31.1523438 220.019531,27.2460938 231.298828,27.2460938 Z" id="path-10"></path>
    </defs>
    <g id="Page-1" stroke="none" stroke-width="1" fill="none" fill-rule="evenodd">
        <g id="libro-text" fill-rule="nonzero">
            <g id="libro">
                <path d="M128.970588,66 C142.793951,66 154,77.1926795 154,90.9995493 C154,104.806419 142.793951,115.999099 128.970588,115.999099 C128.473758,115.999099 127.980309,115.98464 127.49064,115.956121 L127.697007,115.999674 L80,115.999099 L93.1090651,98.1074032 L108.158627,77.1069733 C112.649045,70.4093826 120.294268,66 128.970588,66 Z" id="形状结合" fill="#155DE2"></path>
                <path d="M104.481034,0 L147,0 L147,0 L59.3397468,116 L0,116 L78.0248494,13.1382037 C84.3029962,4.8615911 94.0927023,0 104.481034,0 Z" id="矩形" fill="#155DE2"></path>
                <path d="M65.667264,51.1430655 C65.667264,84.8453007 91.2203312,112.576275 123.999729,115.999972 L0,115.997535 L75.3014571,17.0042341 C69.1915639,26.9341621 65.667264,38.6268332 65.667264,51.1430655 Z" id="形状结合" fill="#12D8C6"></path>
            </g>
            <g id="libro" transform="translate(198.8105, 1.041)">
                <g id="Path">
                    <use fill="#000000" xlink:href="#path-2"></use>
                    <use fill-opacity="0.8" fill="#155DE2" xlink:href="#path-2"></use>
                    <use fill="url(#linearGradient-1)" xlink:href="#path-2"></use>
                </g>
                <g id="Shape">
                    <use fill="#000000" xlink:href="#path-4"></use>
                    <use fill-opacity="0.8" fill="#155DE2" xlink:href="#path-4"></use>
                    <use fill="url(#linearGradient-3)" xlink:href="#path-4"></use>
                </g>
                <g id="Shape">
                    <use fill="#000000" xlink:href="#path-6"></use>
                    <use fill-opacity="0.8" fill="#155DE2" xlink:href="#path-6"></use>
                    <use fill="url(#linearGradient-5)" xlink:href="#path-6"></use>
                </g>
                <g id="Path">
                    <use fill="#000000" xlink:href="#path-8"></use>
                    <use fill-opacity="0.8" fill="#155DE2" xlink:href="#path-8"></use>
                    <use fill="url(#linearGradient-7)" xlink:href="#path-8"></use>
                </g>
                <g id="Shape">
                    <use fill="#000000" xlink:href="#path-10"></use>
                    <use fill-opacity="0.8" fill="#155DE2" xlink:href="#path-10"></use>
                    <use fill="url(#linearGradient-9)" xlink:href="#path-10"></use>
                </g>
            </g>
        </g>
    </g>
</svg>