<svg data-v-8ba38e7c="" version="1.0" xmlns="http://www.w3.org/2000/svg" xmlns:xlink="http://www.w3.org/1999/xlink" width="100%" height="100%" viewBox="40 50 260.000000 150.000000" preserveAspectRatio="xMidYMid meet" color-interpolation-filters="sRGB" style="margin: auto; overflow: visible;">
  <rect data-v-8ba38e7c="" x="0" y="0" width="100%" height="100%" fill="#ffffff" fill-opacity="0" class="background">
  </rect>
  <g data-v-8ba38e7c="" fill="#E69138" class="icon-text-wrapper icon-svg-group iconsvg" transform="translate(44,51.93449401855469)">
    <g class="iconsvg-imagesvg" transform="translate(0,0)" mask="url(#c5707435-6b92-4643-a7d6-67efddc4f33f)">
      <g>
        <rect fill="#E69138" fill-opacity="0" stroke-width="2" x="0" y="0" width="251.99999999999986" height="146.13100760809044" class="image-rect"></rect>
        <svg filter="url(#colors1421692962)" x="0" y="0" width="251.99999999999986" height="146.13100760809044" filtersec="colorsf5813356074" class="image-svg-svg primary">
        <svg xmlns="http://www.w3.org/2000/svg" xmlns:xlink="http://www.w3.org/1999/xlink" version="1.2" baseProfile="tiny" x="0px" y="0px" viewBox="0.37599992752075195 19.509000778198242 99.9990005493164 57.98799133300781" xml:space="preserve">
        <path d="M96.897,37.513c1.921,0,3.478-1.558,3.478-3.479c0-1.92-1.557-3.478-3.478-3.478s-3.478,1.558-3.478,3.478  c0,0.422,0.079,0.825,0.217,1.2l-10.153,8.649l-12.864-7.567c0.073-0.297,0.116-0.607,0.116-0.927c0-2.142-1.736-3.878-3.878-3.878  c-0.869,0-1.668,0.289-2.314,0.772L52.92,23.054c0.054-0.22,0.086-0.448,0.086-0.684c0-1.581-1.281-2.861-2.861-2.861  s-2.861,1.281-2.861,2.861c0,0.729,0.275,1.393,0.724,1.898l-5.835,12.488c-0.26-0.045-0.526-0.074-0.8-0.074  c-0.86,0-1.662,0.239-2.351,0.647l-15.438-6.915c0.036-0.225,0.06-0.454,0.06-0.689c0-2.38-1.929-4.309-4.309-4.309  c-2.379,0-4.309,1.929-4.309,4.309s1.929,4.309,4.309,4.309c1.352,0,2.556-0.623,3.346-1.596l14.682,6.576  c-0.384,0.674-0.607,1.452-0.607,2.284c0,0.852,0.293,1.605,0.694,2.29l-8.233,8.237c-1.136-0.811-2.506-1.294-4.003-1.294  c-2.642,0-4.915,1.501-6.082,3.684l-0.096-0.032c-0.001,0.012-0.004,0.023-0.005,0.035L7.553,49.002  c0.016-0.134,0.025-0.271,0.025-0.409c0-1.989-1.612-3.601-3.601-3.601s-3.601,1.612-3.601,3.601s1.612,3.601,3.601,3.601  c1.054,0,1.999-0.455,2.657-1.177l11.723,5.329c-0.005,0.013-0.009,0.025-0.015,0.037l0.056,0.019  c-0.054,0.348-0.108,0.694-0.108,1.055c0,1.954,0.813,3.716,2.115,4.975l-0.017,0.013c0.004,0.005,0.008,0.01,0.012,0.014  l-5.973,8.802c-0.155-0.027-0.314-0.044-0.478-0.044c-1.479,0-2.678,1.198-2.678,2.678c0,1.479,1.199,2.678,2.678,2.678  c1.479,0,2.678-1.199,2.678-2.678c0-0.501-0.14-0.969-0.38-1.37l5.364-7.904l0.71-0.877c0.881,0.407,1.859,0.641,2.894,0.641  c1.902,0,3.629-0.771,4.883-2.016l6.993,4.991c-0.199,0.514-0.334,1.06-0.334,1.641c0,2.548,2.065,4.617,4.617,4.617  c2.159,0,3.965-1.483,4.471-3.482l15.916-4.923c0.977,1.815,2.893,3.05,5.099,3.05c1.273,0,2.447-0.417,3.403-1.114l7.12,6.611  c-0.038,0.193-0.059,0.393-0.059,0.597c0,1.734,1.406,3.14,3.14,3.14s3.139-1.405,3.139-3.14c0-1.733-1.405-3.139-3.139-3.139  c-0.707,0-1.358,0.236-1.883,0.631l-6.811-6.323c0.552-0.887,0.893-1.93,0.893-3.05c0-2.815-1.661-5.16-4.661-5.677V39.104  c1-0.172,1.082-0.478,1.513-0.878l13.332,7.848l11.179,15.655c-0.092,0.23-0.146,0.481-0.146,0.745c0,1.125,0.91,2.037,2.035,2.037  s2.037-0.912,2.037-2.037s-0.913-2.037-2.038-2.037c-0.03,0-0.06,0.003-0.09,0.005L85.094,45.422l9.931-8.459  C95.565,37.31,96.207,37.513,96.897,37.513z M61.07,62.474c0,0.21,0.013,0.416,0.035,0.62l-15.275,4.724  c-0.522-1.975-2.316-3.435-4.458-3.435c-1.123,0-2.114,0.451-2.913,1.113l-7.038-5.022c0.447-0.92,0.717-1.93,0.717-3.017  c0-1.492-0.487-2.871-1.29-3.999l8.233-8.237c0.686,0.401,1.438,0.694,2.291,0.694c1.642,0,3.079-0.857,3.897-2.147l17.222,14.914  C61.609,59.699,61.07,61.022,61.07,62.474z M66,56.797c-1,0.1-1.135,0.273-1.596,0.502l-18.36-15.846  c0.002-0.052-0.023-0.102-0.023-0.154c0-1.485-0.718-2.802-1.806-3.646l5.799-12.428c0.046,0.002,0.088,0.007,0.134,0.007  c0.53,0,1.023-0.147,1.449-0.399l11.621,9.229c-0.151,0.415-0.113,0.861-0.113,1.328c0,1.757,0.895,3.238,2.895,3.715V56.797z">
        </path>
        </svg>
        </svg>
        <defs>
          <filter id="colors1421692962">
            <feColorMatrix type="matrix" values="0 0 0 0 0.4296875  0 0 0 0 0.26953125  0 0 0 0 0.8828125  0 0 0 1 0" class="icon-fecolormatrix">
            </feColorMatrix>
          </filter>
          <filter id="colorsf5813356074">
            <feColorMatrix type="matrix" values="0 0 0 0 0.99609375  0 0 0 0 0.99609375  0 0 0 0 0.99609375  0 0 0 1 0" class="icon-fecolormatrix">
            </feColorMatrix>
          </filter>
          <filter id="colorsb1455068092">
            <feColorMatrix type="matrix" values="0 0 0 0 0  0 0 0 0 0  0 0 0 0 0  0 0 0 1 0" class="icon-fecolormatrix">
            </feColorMatrix>
          </filter>
        </defs>
      </g>
      <rect v-gra="id" width="264" height="158.13101196289062" transform="translate(-6, -6)" style="pointer-events:none;" fill="url(#a0dae01a-2b03-4484-9e6f-adad68ca1e2d)">
      </rect>
    </g>
    <g transform="translate(126,153.13101196289062)">
      <g data-gra="path-name" fill-rule="" class="tp-name iconsvg-namesvg">
        <g transform="scale(0.9199999999999999)">
          <g>
            <path d="" transform="translate(0, 0)">
            </path>
          </g>
        </g>
      </g>
    </g>
  </g>
  <defs v-gra="od">
  </defs>
  <defs v-gra="id">
    <filter id="c2cb04ba-0832-496e-a183-dfb4febb13c2" filterUnits="userSpaceOnUse">
      <feColorMatrix type="matrix" values="0 0 0 0 0.99609375  0 0 0 0 0.99609375  0 0 0 0 0.99609375  0 0 0 1 0">
      </feColorMatrix>
    </filter>
    <linearGradient x1="0" y1="0" x2="1" y2="0" id="a0dae01a-2b03-4484-9e6f-adad68ca1e2d">
      <stop offset="0%" stop-color="#ffd446"></stop>
      <stop offset="100%" stop-color="#ff7799"></stop>
    </linearGradient>
    <filter id="42443b3f1de60f6b6fd3b6a9844b4764" filterUnits="userSpaceOnUse">
      <feColorMatrix type="matrix" values="0 0 0 0 0.99609375  0 0 0 0 0.99609375  0 0 0 0 0.99609375  0 0 0 1 0"></feColorMatrix>
    </filter>
  </defs>
  <mask v-gra="im" id="c5707435-6b92-4643-a7d6-67efddc4f33f">
    <g class="iconsvg-imagesvg" filter="url(#c2cb04ba-0832-496e-a183-dfb4febb13c2)">
      <g>
        <rect fill="#E69138" fill-opacity="0" stroke-width="2" x="0" y="0" width="251.99999999999986" height="146.13100760809044" class="image-rect"></rect>
        <svg filter="url(#colors1421692962)" x="0" y="0" width="251.99999999999986" height="146.13100760809044" filtersec="colorsf5813356074" class="image-svg-svg primary">
          <svg xmlns="http://www.w3.org/2000/svg" xmlns:xlink="http://www.w3.org/1999/xlink" version="1.2" baseProfile="tiny" x="0px" y="0px" viewBox="0.37599992752075195 19.509000778198242 99.9990005493164 57.98799133300781" xml:space="preserve">
            <path d="M96.897,37.513c1.921,0,3.478-1.558,3.478-3.479c0-1.92-1.557-3.478-3.478-3.478s-3.478,1.558-3.478,3.478  c0,0.422,0.079,0.825,0.217,1.2l-10.153,8.649l-12.864-7.567c0.073-0.297,0.116-0.607,0.116-0.927c0-2.142-1.736-3.878-3.878-3.878  c-0.869,0-1.668,0.289-2.314,0.772L52.92,23.054c0.054-0.22,0.086-0.448,0.086-0.684c0-1.581-1.281-2.861-2.861-2.861  s-2.861,1.281-2.861,2.861c0,0.729,0.275,1.393,0.724,1.898l-5.835,12.488c-0.26-0.045-0.526-0.074-0.8-0.074  c-0.86,0-1.662,0.239-2.351,0.647l-15.438-6.915c0.036-0.225,0.06-0.454,0.06-0.689c0-2.38-1.929-4.309-4.309-4.309  c-2.379,0-4.309,1.929-4.309,4.309s1.929,4.309,4.309,4.309c1.352,0,2.556-0.623,3.346-1.596l14.682,6.576  c-0.384,0.674-0.607,1.452-0.607,2.284c0,0.852,0.293,1.605,0.694,2.29l-8.233,8.237c-1.136-0.811-2.506-1.294-4.003-1.294  c-2.642,0-4.915,1.501-6.082,3.684l-0.096-0.032c-0.001,0.012-0.004,0.023-0.005,0.035L7.553,49.002  c0.016-0.134,0.025-0.271,0.025-0.409c0-1.989-1.612-3.601-3.601-3.601s-3.601,1.612-3.601,3.601s1.612,3.601,3.601,3.601  c1.054,0,1.999-0.455,2.657-1.177l11.723,5.329c-0.005,0.013-0.009,0.025-0.015,0.037l0.056,0.019  c-0.054,0.348-0.108,0.694-0.108,1.055c0,1.954,0.813,3.716,2.115,4.975l-0.017,0.013c0.004,0.005,0.008,0.01,0.012,0.014  l-5.973,8.802c-0.155-0.027-0.314-0.044-0.478-0.044c-1.479,0-2.678,1.198-2.678,2.678c0,1.479,1.199,2.678,2.678,2.678  c1.479,0,2.678-1.199,2.678-2.678c0-0.501-0.14-0.969-0.38-1.37l5.364-7.904l0.71-0.877c0.881,0.407,1.859,0.641,2.894,0.641  c1.902,0,3.629-0.771,4.883-2.016l6.993,4.991c-0.199,0.514-0.334,1.06-0.334,1.641c0,2.548,2.065,4.617,4.617,4.617  c2.159,0,3.965-1.483,4.471-3.482l15.916-4.923c0.977,1.815,2.893,3.05,5.099,3.05c1.273,0,2.447-0.417,3.403-1.114l7.12,6.611  c-0.038,0.193-0.059,0.393-0.059,0.597c0,1.734,1.406,3.14,3.14,3.14s3.139-1.405,3.139-3.14c0-1.733-1.405-3.139-3.139-3.139  c-0.707,0-1.358,0.236-1.883,0.631l-6.811-6.323c0.552-0.887,0.893-1.93,0.893-3.05c0-2.815-1.661-5.16-4.661-5.677V39.104  c1-0.172,1.082-0.478,1.513-0.878l13.332,7.848l11.179,15.655c-0.092,0.23-0.146,0.481-0.146,0.745c0,1.125,0.91,2.037,2.035,2.037  s2.037-0.912,2.037-2.037s-0.913-2.037-2.038-2.037c-0.03,0-0.06,0.003-0.09,0.005L85.094,45.422l9.931-8.459  C95.565,37.31,96.207,37.513,96.897,37.513z M61.07,62.474c0,0.21,0.013,0.416,0.035,0.62l-15.275,4.724  c-0.522-1.975-2.316-3.435-4.458-3.435c-1.123,0-2.114,0.451-2.913,1.113l-7.038-5.022c0.447-0.92,0.717-1.93,0.717-3.017  c0-1.492-0.487-2.871-1.29-3.999l8.233-8.237c0.686,0.401,1.438,0.694,2.291,0.694c1.642,0,3.079-0.857,3.897-2.147l17.222,14.914  C61.609,59.699,61.07,61.022,61.07,62.474z M66,56.797c-1,0.1-1.135,0.273-1.596,0.502l-18.36-15.846  c0.002-0.052-0.023-0.102-0.023-0.154c0-1.485-0.718-2.802-1.806-3.646l5.799-12.428c0.046,0.002,0.088,0.007,0.134,0.007  c0.53,0,1.023-0.147,1.449-0.399l11.621,9.229c-0.151,0.415-0.113,0.861-0.113,1.328c0,1.757,0.895,3.238,2.895,3.715V56.797z">
            </path>
          </svg>
        </svg>
        <defs>
          <filter id="colors1421692962">
            <feColorMatrix type="matrix" values="0 0 0 0 0.4296875  0 0 0 0 0.26953125  0 0 0 0 0.8828125  0 0 0 1 0" class="icon-fecolormatrix"></feColorMatrix>
          </filter>
          <filter id="colorsf5813356074">
            <feColorMatrix type="matrix" values="0 0 0 0 0.99609375  0 0 0 0 0.99609375  0 0 0 0 0.99609375  0 0 0 1 0" class="icon-fecolormatrix"></feColorMatrix>
          </filter>
          <filter id="colorsb1455068092">
            <feColorMatrix type="matrix" values="0 0 0 0 0  0 0 0 0 0  0 0 0 0 0  0 0 0 1 0" class="icon-fecolormatrix"></feColorMatrix>
          </filter>
        </defs>
      </g>
    </g>
  </mask>
</svg>
